<svg data-v-fde0c5aa="" xmlns="http://www.w3.org/2000/svg" viewBox="0 0 300 300" class="iconAbove"><!----><defs data-v-fde0c5aa=""><!----></defs><!----><defs data-v-fde0c5aa=""><linearGradient data-v-fde0c5aa="" gradientTransform="rotate(25)" id="f65f8bda-666f-4eaa-b2f0-dd123f744819" x1="0%" y1="0%" x2="100%" y2="0%"><stop data-v-fde0c5aa="" offset="0%" stop-color="#29E215" stop-opacity="1"></stop><stop data-v-fde0c5aa="" offset="100%" stop-color="#16748A" stop-opacity="1"></stop></linearGradient></defs><g data-v-fde0c5aa="" id="a71c5802-33ae-4313-b5d0-c04304d2e7b4" fill="url(#f65f8bda-666f-4eaa-b2f0-dd123f744819)" transform="matrix(6.207178115844727,0,0,6.207178115844727,11.453847077181615,171.86292161805304)"><path d="M0.56 14L4.21 14L4.21 13.37L3.32 13.20L3.32 7.18L2.98 6.93L0.55 7.13L0.55 7.76L1.46 7.87L1.46 13.20L0.56 13.37ZM2.34 5.71C3.01 5.71 3.44 5.32 3.44 4.63C3.44 4.02 3.07 3.64 2.44 3.64C1.81 3.64 1.32 4.02 1.32 4.68C1.32 5.31 1.75 5.71 2.34 5.71ZM8.32 14.14C9.28 14.14 9.95 13.82 10.35 13.37C10.53 13.80 10.89 14.14 11.76 14.14C12.24 14.14 12.67 13.90 12.67 13.90L12.67 13.24L12.46 13.24C12.04 13.24 11.94 13.10 11.94 12.64L11.94 3.42L11.44 3.35L9.28 3.56L9.28 4.19L10.08 4.30L10.08 7.14C10.08 7.14 9.44 6.86 8.68 6.86C6.37 6.86 5.19 8.43 5.19 10.88C5.19 12.78 6.55 14.14 8.32 14.14ZM9.03 13.02C7.52 13.02 7.07 11.86 7.07 10.36C7.07 8.89 7.76 7.83 8.88 7.83C9.63 7.83 10.08 8.16 10.08 8.16L10.08 11.21C10.08 11.90 10.14 12.73 10.14 12.73C10.12 12.73 9.65 13.02 9.03 13.02ZM18.72 14.20C20.40 14.20 21.49 13.65 21.49 13.65L21.49 11.16L20.73 11.16L20.45 13.05C20.15 13.16 19.70 13.27 19.17 13.27C16.81 13.27 15.76 11.51 15.76 8.97C15.76 6.43 16.81 4.93 19.00 4.93C19.60 4.93 20.09 5.07 20.43 5.18L20.65 6.94L21.42 6.94L21.53 4.56C21.53 4.56 20.50 4.00 18.68 4.00C15.50 4.00 13.78 6.43 13.78 9.27C13.78 12.39 15.78 14.20 18.72 14.20ZM28.29 14.14C28.77 14.14 29.20 13.90 29.20 13.90L29.20 13.26L29.18 13.26C28.71 13.26 28.48 13.13 28.48 12.66L28.48 9.27C28.48 7.94 27.83 6.86 25.80 6.86C24.49 6.86 23.39 7.31 23.39 7.31L23.39 8.13C23.39 8.13 24.32 7.91 24.96 7.91C26.22 7.91 26.64 8.40 26.64 9.37L26.64 10.12C26.24 10.12 25.73 10.14 25.20 10.21C23.55 10.40 22.75 11.20 22.75 12.42C22.75 13.37 23.39 14.17 24.79 14.17C25.61 14.17 26.26 13.80 26.85 13.31C27.02 13.76 27.38 14.14 28.29 14.14ZM25.58 12.92C24.93 12.92 24.58 12.59 24.58 12.08C24.58 11.47 24.98 11.10 25.54 10.99C26.21 10.86 26.61 10.96 26.61 10.96L26.61 11.41C26.61 12.22 26.66 12.61 26.66 12.61C26.66 12.61 26.33 12.92 25.58 12.92ZM30.21 14L34.03 14L34.03 13.37L32.97 13.26L32.97 9.94C32.97 9.18 32.91 8.54 32.91 8.54C32.91 8.54 33.31 8.30 33.87 8.30C34.51 8.30 34.87 8.61 35.42 8.82L36.06 7.46C35.31 7.20 35.07 6.86 34.43 6.86C33.92 6.86 33.45 7.13 32.91 7.87L32.97 7.18L32.61 6.93L30.20 7.13L30.20 7.76L31.08 7.87L31.11 13.24L30.21 13.37ZM39.73 14.14C40.70 14.14 41.37 13.82 41.76 13.37C41.94 13.80 42.31 14.14 43.18 14.14C43.65 14.14 44.09 13.90 44.09 13.90L44.09 13.24L43.88 13.24C43.46 13.24 43.36 13.10 43.36 12.64L43.36 3.42L42.85 3.35L40.70 3.56L40.70 4.19L41.50 4.30L41.50 7.14C41.50 7.14 40.85 6.86 40.10 6.86C37.79 6.86 36.61 8.43 36.61 10.88C36.61 12.78 37.97 14.14 39.73 14.14ZM40.45 13.02C38.93 13.02 38.49 11.86 38.49 10.36C38.49 8.89 39.17 7.83 40.29 7.83C41.05 7.83 41.50 8.16 41.50 8.16L41.50 11.21C41.50 11.90 41.55 12.73 41.55 12.73C41.54 12.73 41.06 13.02 40.45 13.02Z"></path></g><defs data-v-fde0c5aa=""><linearGradient data-v-fde0c5aa="" gradientTransform="rotate(25)" id="ebb6f534-24df-4845-a2e2-bf25f38ce963" x1="0%" y1="0%" x2="100%" y2="0%"><stop data-v-fde0c5aa="" offset="0%" stop-color="#29E215" stop-opacity="1"></stop><stop data-v-fde0c5aa="" offset="100%" stop-color="#16748A" stop-opacity="1"></stop></linearGradient></defs><g data-v-fde0c5aa="" id="dc8e77df-4bfb-42ee-834c-7d81155c650e" stroke="none" fill="url(#ebb6f534-24df-4845-a2e2-bf25f38ce963)" transform="matrix(3.3251028060913086,0,0,3.3251028060913086,70.03517232510289,28.362139917695472)"><path d="M24 30.5c-7.5 0-13.5-6.1-13.5-13.5 0-7.5 6.1-13.5 13.5-13.5 7.5 0 13.5 6.1 13.5 13.5s-6 13.5-13.5 13.5zm0-25.1c-6.4 0-11.5 5.2-11.5 11.5 0 6.4 5.2 11.6 11.5 11.6 6.4 0 11.5-5.2 11.5-11.6 0-6.3-5.1-11.5-11.5-11.5z"></path><path d="M46.2 44c-.3 0-.5-.1-.7-.3-11.8-11.8-31.1-11.8-42.9 0-.4.399-1 .399-1.4 0-.4-.4-.4-1 0-1.4 12.6-12.6 33.1-12.6 45.7 0 .399.4.399 1 0 1.4-.2.2-.5.3-.7.3z"></path></g><!----></svg>